PathFileType  4	(X/Y/Z) C:\Users\antoi\Documents\MyRepositories\mobilecap\ResultsAnalysis
DataRate	CameraRate	NumFrames	NumMarkers	Units	OrigDataRate	OrigDataStartFrame	OrigNumFrames
100.0	100.0	5	51	mm	100.0	32	253
Frame#	Time	r_knee			r_shank_antsup			r_ankle			r_calc			r_5meta			r_toe			L_knee			L_shank_antsup			L_ankle			L_calc			L_5meta			L_toe			r_sh2			r_sh3			r_sh4			L_sh2			L_sh3			r_thigh1			r_thigh2			r_thigh3			r_thigh4			r_thigh5			L_thigh1			L_thigh2			L_thigh3			L_thigh4			r.ASIS			r.PSIS			L.ASIS			L.PSIS			C7			R_Shoulder			L_Shoulder			R_Sternum			L_Sternum			R_humerus			R_elbow_med			R_elbow_lat			R_forearm			R_wrist_radius			R_wrist_ulna			L_humerus			L_elbow_med			L_elbow_lat			L_forearm			L_wrist_radius			L_wrist_ulna			R_HJC			L_HJC			R_HJC_reg			L_HJC_reg			
		X1	Y1	Z1	X2	Y2	Z2	X3	Y3	Z3	X4	Y4	Z4	X5	Y5	Z5	X6	Y6	Z6	X7	Y7	Z7	X8	Y8	Z8	X9	Y9	Z9	X10	Y10	Z10	X11	Y11	Z11	X12	Y12	Z12	X13	Y13	Z13	X14	Y14	Z14	X15	Y15	Z15	X16	Y16	Z16	X17	Y17	Z17	X18	Y18	Z18	X19	Y19	Z19	X20	Y20	Z20	X21	Y21	Z21	X22	Y22	Z22	X23	Y23	Z23	X24	Y24	Z24	X25	Y25	Z25	X26	Y26	Z26	X27	Y27	Z27	X28	Y28	Z28	X29	Y29	Z29	X30	Y30	Z30	X31	Y31	Z31	X32	Y32	Z32	X33	Y33	Z33	X34	Y34	Z34	X35	Y35	Z35	X36	Y36	Z36	X37	Y37	Z37	X38	Y38	Z38	X39	Y39	Z39	X40	Y40	Z40	X41	Y41	Z41	X42	Y42	Z42	X43	Y43	Z43	X44	Y44	Z44	X45	Y45	Z45	X46	Y46	Z46	X47	Y47	Z47	X48	Y48	Z48	X49	Y49	Z49	X50	Y50	Z50	X51	Y51	Z51	

32	0.31000000	-1112.62551	771.19747	-444.19452	-1109.51174	696.88864	-422.26946	-1175.78425	399.12581	-461.60639	-1244.76618	361.85958	-498.25643	-1072.75494	354.56590	-436.05209	-1031.24761	375.91841	-492.64817	-1116.66106	768.80399	-716.66954	-1096.92382	701.45891	-721.73758	-1175.83437	402.75874	-712.95444	-1245.06445	364.44442	-664.52998	-1084.02431	352.71030	-741.10958	-1034.16738	376.22488	-687.16380	-1126.16152	584.31043	-420.26541	-1183.84948	705.83420	-429.14350	-1207.53595	592.57616	-429.95251	-1182.23100	721.50372	-743.00007	-1195.34261	600.11201	-748.60301	-1022.74400	1077.80729	-445.74055	-1022.81138	964.99138	-442.23570	-1069.93064	941.93385	-400.52219	-1116.81238	1078.97573	-380.67558	-1123.22678	962.04319	-395.88889	-1036.96353	1049.31649	-739.86339	-1041.20113	911.03199	-729.41320	-1152.76981	1050.75282	-764.13345	-1148.29918	910.60694	-747.69012	-1031.39565	1227.99314	-451.49285	-1216.63916	1248.73758	-523.07729	-1031.35354	1220.44403	-707.49369	-1218.81385	1241.45120	-632.81358	-1149.72775	1710.95216	-573.42125	-1091.76880	1651.31750	-420.35549	-1086.34319	1659.27957	-740.99854	-1037.00288	1624.22260	-559.81843	-1036.14328	1623.70527	-600.46941	-1078.59952	1407.31993	-351.87285	-1115.77046	1305.86982	-411.16113	-1106.53824	1322.27955	-340.80866	-1045.02752	1216.38967	-321.50904	-1007.72782	1102.42751	-320.12494	-1049.46252	1090.98892	-313.18172	-1051.47526	1527.43528	-790.43965	-1102.28394	1315.09016	-745.28299	-1099.22054	1323.80067	-805.50476	-1038.28372	1234.19490	-833.52509	-1000.32519	1113.04855	-828.23804	-1034.68291	1100.04883	-837.00393	-1099.76889	1153.63535	-476.50664	-1097.12651	1150.12045	-676.75068	-1095.96182	1151.18420	-481.32672	-1099.30313	1139.98722	-649.95640	
33	0.32000000	-1111.07232	770.76775	-445.10587	-1107.98504	696.58441	-422.85289	-1175.87230	399.12600	-461.68220	-1244.85769	361.81635	-498.27577	-1072.82472	354.92092	-436.15812	-1031.36527	376.28488	-492.75488	-1113.94134	768.80984	-718.09849	-1094.56867	700.68664	-721.88159	-1175.90878	402.73206	-712.97324	-1245.13664	364.34562	-664.52345	-1084.14309	352.81869	-741.01405	-1034.28686	376.57401	-687.05391	-1125.26656	584.29559	-420.58024	-1182.35012	705.93658	-429.49348	-1206.53569	592.73194	-430.03780	-1179.68041	721.46542	-743.26574	-1193.48238	600.20928	-749.23687	-1023.15306	1077.71161	-445.95504	-1022.47161	965.09735	-442.63201	-1069.25077	941.55148	-400.96742	-1116.66457	1078.54628	-380.81591	-1122.56741	961.65239	-396.13629	-1037.04658	1049.68407	-739.90992	-1040.09470	911.36092	-729.71858	-1152.72145	1050.28505	-764.30106	-1147.10087	910.14029	-748.50289	-1031.40453	1227.60236	-451.58994	-1216.69830	1249.15464	-522.78222	-1032.09290	1220.26794	-707.46287	-1219.23281	1241.97101	-632.70707	-1146.39539	1711.11644	-573.41798	-1088.06607	1651.57447	-420.34275	-1083.51827	1659.20555	-740.80381	-1034.17206	1623.66036	-560.27499	-1033.29216	1623.21379	-600.62129	-1076.83242	1407.39715	-351.59355	-1115.19875	1306.12838	-410.72295	-1105.21316	1322.50084	-340.22750	-1043.78133	1216.39462	-321.60903	-1006.70874	1102.27050	-320.39955	-1048.41259	1091.13714	-312.94829	-1049.30772	1527.25558	-790.58650	-1101.68108	1315.16808	-746.33246	-1098.21483	1324.16237	-806.77371	-1037.61318	1234.00580	-834.14735	-1000.37811	1112.75196	-828.84819	-1034.72828	1099.91917	-838.24963	-1100.20159	1153.54912	-476.53394	-1097.97809	1150.17541	-676.78548	-1096.32810	1151.10628	-481.28504	-1100.21461	1140.09245	-649.82741	
34	0.33000000	-1109.86795	770.33212	-445.49762	-1106.73791	696.26982	-423.29739	-1175.97503	399.09015	-461.74526	-1244.93533	361.76326	-498.30768	-1072.78428	355.27657	-436.26457	-1031.49351	376.64933	-492.80263	-1111.38719	768.61393	-718.91520	-1092.21516	699.99777	-722.10550	-1175.99176	402.66986	-712.99730	-1245.19572	364.25990	-664.52303	-1084.26031	352.88527	-740.90513	-1034.46908	376.91430	-686.93204	-1124.56784	584.12076	-420.93769	-1181.17072	705.89597	-429.98076	-1205.65611	592.69441	-430.23681	-1177.24887	721.40570	-743.65234	-1191.70734	600.41560	-749.67390	-1023.76747	1077.55991	-446.04919	-1021.86829	965.08598	-443.62300	-1068.58744	940.99400	-401.69864	-1116.54868	1078.10612	-381.04644	-1122.02163	961.27005	-396.44607	-1037.41379	1049.99374	-739.82860	-1038.97528	911.63411	-730.15801	-1152.66907	1049.76316	-764.53067	-1145.91397	909.37376	-748.66871	-1031.35724	1227.23780	-451.50620	-1216.79264	1249.49850	-522.50062	-1032.82425	1219.98209	-707.48010	-1219.63593	1242.35871	-632.34049	-1142.77907	1711.17747	-573.39046	-1084.38617	1651.62370	-420.44926	-1080.42875	1658.99336	-740.67592	-1031.08434	1623.05790	-560.52594	-1030.27025	1622.59926	-600.80964	-1074.99680	1407.40646	-351.19177	-1114.46101	1306.05111	-410.57871	-1103.83655	1322.60526	-339.64103	-1042.36146	1216.28255	-321.71225	-1005.53169	1101.98813	-320.80008	-1047.23504	1091.07596	-312.85321	-1046.98566	1526.94416	-790.62813	-1101.17596	1315.06962	-747.55373	-1097.17541	1324.35509	-808.15439	-1036.81725	1233.79734	-834.96751	-1000.39893	1112.36852	-829.57931	-1034.74881	1099.64875	-839.27095	-1100.57125	1153.45464	-476.42892	-1098.81113	1150.11807	-676.68589	-1096.69417	1150.97324	-481.06811	-1101.05893	1140.01387	-649.66925	
35	0.34000000	-1108.84038	770.14725	-445.61203	-1105.76913	695.96344	-423.75628	-1176.09120	399.06931	-461.77608	-1245.03593	361.64840	-498.31616	-1072.79550	355.50567	-436.33131	-1031.63932	377.01479	-492.80836	-1109.15057	767.99382	-718.80215	-1090.01411	699.26213	-722.36658	-1176.06033	402.63385	-713.04929	-1245.27351	364.18391	-664.55301	-1084.36097	352.96146	-740.76911	-1034.69636	377.29003	-686.89229	-1123.85046	583.75355	-421.36475	-1179.98794	705.85317	-430.30692	-1205.04220	592.57695	-430.50665	-1174.95255	721.24899	-744.00093	-1190.28064	600.49584	-749.89713	-1023.88094	1077.46477	-446.43767	-1021.19772	964.93409	-444.74822	-1067.88693	940.59956	-402.23253	-1116.38688	1077.69370	-381.29131	-1121.52433	960.90336	-396.71853	-1038.01593	1050.14079	-739.72223	-1037.89547	911.84534	-730.32339	-1152.67253	1049.05920	-764.54452	-1144.75400	908.58897	-748.67902	-1031.39293	1226.75354	-451.56867	-1216.88147	1249.79273	-522.29413	-1033.56387	1219.57536	-707.69008	-1220.03265	1242.70388	-631.92498	-1138.82137	1711.24565	-573.30331	-1080.85238	1651.20412	-420.88436	-1077.02322	1658.63663	-740.80841	-1027.78514	1622.32201	-560.68539	-1027.01147	1621.79478	-600.99203	-1073.10763	1407.24960	-350.86657	-1113.78787	1305.90535	-410.00625	-1102.44857	1322.57690	-339.07254	-1040.96166	1216.15718	-321.80700	-1004.23314	1101.73420	-321.35227	-1045.88143	1090.91618	-312.73606	-1044.53289	1526.47411	-790.71582	-1100.99876	1314.81684	-748.75563	-1096.11643	1324.24089	-809.11209	-1035.98314	1233.54676	-835.76229	-1000.44189	1111.82447	-830.40957	-1034.71586	1099.26888	-840.24765	-1100.96858	1153.26276	-476.42480	-1099.72424	1149.97358	-676.68636	-1097.12780	1150.73520	-481.00166	-1101.97667	1139.82738	-649.69220	
36	0.35000000	-1108.00363	769.99461	-445.98281	-1104.94171	695.64658	-424.24158	-1176.22668	399.09180	-461.73447	-1245.16765	361.48600	-498.29812	-1072.97608	355.56253	-436.38949	-1031.83075	377.36785	-492.81575	-1107.06120	767.27621	-718.63089	-1088.00545	698.42494	-722.56764	-1176.14036	402.63106	-713.13441	-1245.36594	364.11476	-664.63248	-1084.43874	353.16063	-740.70192	-1034.91674	377.74852	-686.97868	-1123.05124	583.42258	-421.77185	-1178.85219	705.87736	-430.48523	-1204.60943	592.52943	-430.66839	-1172.72113	721.06283	-744.23503	-1189.17988	600.29587	-749.99699	-1023.65592	1077.37306	-447.02034	-1020.76415	964.68835	-445.50329	-1067.24801	940.28259	-402.64315	-1116.17251	1077.26827	-381.49345	-1121.06738	960.48130	-396.98968	-1038.47216	1050.15678	-739.67472	-1036.90420	911.97072	-730.08907	-1152.72860	1048.23253	-764.35466	-1143.63665	907.94527	-748.89593	-1031.43589	1226.18775	-451.87831	-1216.90640	1250.07331	-522.10068	-1034.37925	1219.01696	-708.09952	-1220.39783	1243.03656	-631.58406	-1134.57499	1711.29022	-573.27430	-1076.65195	1650.77646	-421.23329	-1073.38461	1658.21906	-741.02133	-1024.29266	1621.41298	-560.91236	-1023.54837	1620.83804	-601.20327	-1071.15290	1406.90561	-350.56077	-1113.24918	1305.80614	-409.02247	-1101.04900	1322.44964	-338.48325	-1039.59245	1215.99336	-321.81869	-1002.83484	1101.50427	-322.02178	-1044.36215	1090.71316	-312.60420	-1041.98771	1525.88124	-790.97070	-1100.95748	1314.60122	-749.86817	-1095.10342	1323.93106	-809.87480	-1035.15562	1233.14492	-836.32569	-1000.46343	1111.13946	-830.97623	-1034.56917	1098.85839	-841.41056	-1101.35062	1153.01259	-476.55200	-1100.74444	1149.73148	-676.81633	-1097.58332	1150.40942	-481.15860	-1102.96443	1139.56350	-649.90830	
